solid OpenSCAD_Model
  facet normal -0 0 1
    outer loop
      vertex -88.9 101.6 2.5
      vertex 88.9 -101.6 2.5
      vertex 88.9 101.6 2.5
    endloop
  endfacet
  facet normal 0 0 1
    outer loop
      vertex 88.9 -101.6 2.5
      vertex -88.9 101.6 2.5
      vertex -88.9 -101.6 2.5
    endloop
  endfacet
  facet normal 0 0 -1
    outer loop
      vertex -88.9 -101.6 -2.5
      vertex 88.9 101.6 -2.5
      vertex 88.9 -101.6 -2.5
    endloop
  endfacet
  facet normal -0 0 -1
    outer loop
      vertex 88.9 101.6 -2.5
      vertex -88.9 -101.6 -2.5
      vertex -88.9 101.6 -2.5
    endloop
  endfacet
  facet normal 0 -1 0
    outer loop
      vertex -88.9 -101.6 -2.5
      vertex 88.9 -101.6 2.5
      vertex -88.9 -101.6 2.5
    endloop
  endfacet
  facet normal 0 -1 -0
    outer loop
      vertex 88.9 -101.6 2.5
      vertex -88.9 -101.6 -2.5
      vertex 88.9 -101.6 -2.5
    endloop
  endfacet
  facet normal 1 -0 0
    outer loop
      vertex 88.9 -101.6 2.5
      vertex 88.9 101.6 -2.5
      vertex 88.9 101.6 2.5
    endloop
  endfacet
  facet normal 1 0 0
    outer loop
      vertex 88.9 101.6 -2.5
      vertex 88.9 -101.6 2.5
      vertex 88.9 -101.6 -2.5
    endloop
  endfacet
  facet normal 0 1 -0
    outer loop
      vertex 88.9 101.6 -2.5
      vertex -88.9 101.6 2.5
      vertex 88.9 101.6 2.5
    endloop
  endfacet
  facet normal 0 1 0
    outer loop
      vertex -88.9 101.6 2.5
      vertex 88.9 101.6 -2.5
      vertex -88.9 101.6 -2.5
    endloop
  endfacet
  facet normal -1 0 0
    outer loop
      vertex -88.9 -101.6 -2.5
      vertex -88.9 101.6 2.5
      vertex -88.9 101.6 -2.5
    endloop
  endfacet
  facet normal -1 -0 0
    outer loop
      vertex -88.9 101.6 2.5
      vertex -88.9 -101.6 -2.5
      vertex -88.9 -101.6 2.5
    endloop
  endfacet
endsolid OpenSCAD_Model
